<?xml version="1.0" encoding="utf-8" standalone="no"?>
<!DOCTYPE svg PUBLIC "-//W3C//DTD SVG 1.1//EN"
  "http://www.w3.org/Graphics/SVG/1.1/DTD/svg11.dtd">
<svg xmlns:xlink="http://www.w3.org/1999/xlink" width="339.2325pt" height="357.7565pt" viewBox="0 0 339.2325 357.7565" xmlns="http://www.w3.org/2000/svg" version="1.1">
 <metadata>
  <rdf:RDF xmlns:dc="http://purl.org/dc/elements/1.1/" xmlns:cc="http://creativecommons.org/ns#" xmlns:rdf="http://www.w3.org/1999/02/22-rdf-syntax-ns#">
   <cc:Work>
    <dc:type rdf:resource="http://purl.org/dc/dcmitype/StillImage"/>
    <dc:date>2025-04-04T10:12:01.756615</dc:date>
    <dc:format>image/svg+xml</dc:format>
    <dc:creator>
     <cc:Agent>
      <dc:title>Matplotlib v3.8.1, https://matplotlib.org/</dc:title>
     </cc:Agent>
    </dc:creator>
   </cc:Work>
  </rdf:RDF>
 </metadata>
 <defs>
  <style type="text/css">*{stroke-linejoin: round; stroke-linecap: butt}</style>
 </defs>
 <g id="figure_1">
  <g id="patch_1">
   <path d="M 0 357.7565 
L 339.2325 357.7565 
L 339.2325 0 
L 0 0 
z
" style="fill: #ffffff"/>
  </g>
  <g id="axes_1">
   <g id="patch_2">
    <path d="M 53.0325 319.829 
L 332.0325 319.829 
L 332.0325 42.629 
L 53.0325 42.629 
z
" style="fill: #ffffff"/>
   </g>
   <g id="matplotlib.axis_1">
    <g id="xtick_1">
     <g id="line2d_1">
      <path d="M 65.714318 319.829 
L 65.714318 42.629 
" clip-path="url(#pb032908f26)" style="fill: none; stroke: #dddddd; stroke-width: 0.8; stroke-linecap: square"/>
     </g>
     <g id="line2d_2"/>
     <g id="text_1">
      <!-- 0 -->
      <g transform="translate(61.896818 332.447125) scale(0.12 -0.12)">
       <defs>
        <path id="DejaVuSans-30" d="M 2034 4250 
Q 1547 4250 1301 3770 
Q 1056 3291 1056 2328 
Q 1056 1369 1301 889 
Q 1547 409 2034 409 
Q 2525 409 2770 889 
Q 3016 1369 3016 2328 
Q 3016 3291 2770 3770 
Q 2525 4250 2034 4250 
z
M 2034 4750 
Q 2819 4750 3233 4129 
Q 3647 3509 3647 2328 
Q 3647 1150 3233 529 
Q 2819 -91 2034 -91 
Q 1250 -91 836 529 
Q 422 1150 422 2328 
Q 422 3509 836 4129 
Q 1250 4750 2034 4750 
z
" transform="scale(0.015625)"/>
       </defs>
       <use xlink:href="#DejaVuSans-30"/>
      </g>
     </g>
    </g>
    <g id="xtick_2">
     <g id="line2d_3">
      <path d="M 129.123409 319.829 
L 129.123409 42.629 
" clip-path="url(#pb032908f26)" style="fill: none; stroke: #dddddd; stroke-width: 0.8; stroke-linecap: square"/>
     </g>
     <g id="line2d_4"/>
     <g id="text_2">
      <!-- 0.25 -->
      <g transform="translate(115.764034 332.447125) scale(0.12 -0.12)">
       <defs>
        <path id="DejaVuSans-2e" d="M 684 794 
L 1344 794 
L 1344 0 
L 684 0 
L 684 794 
z
" transform="scale(0.015625)"/>
        <path id="DejaVuSans-32" d="M 1228 531 
L 3431 531 
L 3431 0 
L 469 0 
L 469 531 
Q 828 903 1448 1529 
Q 2069 2156 2228 2338 
Q 2531 2678 2651 2914 
Q 2772 3150 2772 3378 
Q 2772 3750 2511 3984 
Q 2250 4219 1831 4219 
Q 1534 4219 1204 4116 
Q 875 4013 500 3803 
L 500 4441 
Q 881 4594 1212 4672 
Q 1544 4750 1819 4750 
Q 2544 4750 2975 4387 
Q 3406 4025 3406 3419 
Q 3406 3131 3298 2873 
Q 3191 2616 2906 2266 
Q 2828 2175 2409 1742 
Q 1991 1309 1228 531 
z
" transform="scale(0.015625)"/>
        <path id="DejaVuSans-35" d="M 691 4666 
L 3169 4666 
L 3169 4134 
L 1269 4134 
L 1269 2991 
Q 1406 3038 1543 3061 
Q 1681 3084 1819 3084 
Q 2600 3084 3056 2656 
Q 3513 2228 3513 1497 
Q 3513 744 3044 326 
Q 2575 -91 1722 -91 
Q 1428 -91 1123 -41 
Q 819 9 494 109 
L 494 744 
Q 775 591 1075 516 
Q 1375 441 1709 441 
Q 2250 441 2565 725 
Q 2881 1009 2881 1497 
Q 2881 1984 2565 2268 
Q 2250 2553 1709 2553 
Q 1456 2553 1204 2497 
Q 953 2441 691 2322 
L 691 4666 
z
" transform="scale(0.015625)"/>
       </defs>
       <use xlink:href="#DejaVuSans-30"/>
       <use xlink:href="#DejaVuSans-2e" x="63.623047"/>
       <use xlink:href="#DejaVuSans-32" x="95.410156"/>
       <use xlink:href="#DejaVuSans-35" x="159.033203"/>
      </g>
     </g>
    </g>
    <g id="xtick_3">
     <g id="line2d_5">
      <path d="M 192.5325 319.829 
L 192.5325 42.629 
" clip-path="url(#pb032908f26)" style="fill: none; stroke: #dddddd; stroke-width: 0.8; stroke-linecap: square"/>
     </g>
     <g id="line2d_6"/>
     <g id="text_3">
      <!-- 0.5 -->
      <g transform="translate(182.990625 332.447125) scale(0.12 -0.12)">
       <use xlink:href="#DejaVuSans-30"/>
       <use xlink:href="#DejaVuSans-2e" x="63.623047"/>
       <use xlink:href="#DejaVuSans-35" x="95.410156"/>
      </g>
     </g>
    </g>
    <g id="xtick_4">
     <g id="line2d_7">
      <path d="M 255.941591 319.829 
L 255.941591 42.629 
" clip-path="url(#pb032908f26)" style="fill: none; stroke: #dddddd; stroke-width: 0.8; stroke-linecap: square"/>
     </g>
     <g id="line2d_8"/>
     <g id="text_4">
      <!-- 0.75 -->
      <g transform="translate(242.582216 332.447125) scale(0.12 -0.12)">
       <defs>
        <path id="DejaVuSans-37" d="M 525 4666 
L 3525 4666 
L 3525 4397 
L 1831 0 
L 1172 0 
L 2766 4134 
L 525 4134 
L 525 4666 
z
" transform="scale(0.015625)"/>
       </defs>
       <use xlink:href="#DejaVuSans-30"/>
       <use xlink:href="#DejaVuSans-2e" x="63.623047"/>
       <use xlink:href="#DejaVuSans-37" x="95.410156"/>
       <use xlink:href="#DejaVuSans-35" x="159.033203"/>
      </g>
     </g>
    </g>
    <g id="xtick_5">
     <g id="line2d_9">
      <path d="M 319.350682 319.829 
L 319.350682 42.629 
" clip-path="url(#pb032908f26)" style="fill: none; stroke: #dddddd; stroke-width: 0.8; stroke-linecap: square"/>
     </g>
     <g id="line2d_10"/>
     <g id="text_5">
      <!-- 1 -->
      <g transform="translate(315.533182 332.447125) scale(0.12 -0.12)">
       <defs>
        <path id="DejaVuSans-31" d="M 794 531 
L 1825 531 
L 1825 4091 
L 703 3866 
L 703 4441 
L 1819 4666 
L 2450 4666 
L 2450 531 
L 3481 531 
L 3481 0 
L 794 0 
L 794 531 
z
" transform="scale(0.015625)"/>
       </defs>
       <use xlink:href="#DejaVuSans-31"/>
      </g>
     </g>
    </g>
    <g id="xtick_6">
     <g id="line2d_11">
      <path d="M 97.418864 319.829 
L 97.418864 42.629 
" clip-path="url(#pb032908f26)" style="fill: none; stroke-dasharray: 0.7,1.155; stroke-dashoffset: 0; stroke: #eeeeee; stroke-width: 0.7"/>
     </g>
     <g id="line2d_12"/>
    </g>
    <g id="xtick_7">
     <g id="line2d_13">
      <path d="M 160.827955 319.829 
L 160.827955 42.629 
" clip-path="url(#pb032908f26)" style="fill: none; stroke-dasharray: 0.7,1.155; stroke-dashoffset: 0; stroke: #eeeeee; stroke-width: 0.7"/>
     </g>
     <g id="line2d_14"/>
    </g>
    <g id="xtick_8">
     <g id="line2d_15">
      <path d="M 224.237045 319.829 
L 224.237045 42.629 
" clip-path="url(#pb032908f26)" style="fill: none; stroke-dasharray: 0.7,1.155; stroke-dashoffset: 0; stroke: #eeeeee; stroke-width: 0.7"/>
     </g>
     <g id="line2d_16"/>
    </g>
    <g id="xtick_9">
     <g id="line2d_17">
      <path d="M 287.646136 319.829 
L 287.646136 42.629 
" clip-path="url(#pb032908f26)" style="fill: none; stroke-dasharray: 0.7,1.155; stroke-dashoffset: 0; stroke: #eeeeee; stroke-width: 0.7"/>
     </g>
     <g id="line2d_18"/>
    </g>
    <g id="text_6">
     <!-- 1 - Specificity -->
     <g transform="translate(151.812187 348.060875) scale(0.12 -0.12)">
      <defs>
       <path id="DejaVuSans-20" transform="scale(0.015625)"/>
       <path id="DejaVuSans-2d" d="M 313 2009 
L 1997 2009 
L 1997 1497 
L 313 1497 
L 313 2009 
z
" transform="scale(0.015625)"/>
       <path id="DejaVuSans-53" d="M 3425 4513 
L 3425 3897 
Q 3066 4069 2747 4153 
Q 2428 4238 2131 4238 
Q 1616 4238 1336 4038 
Q 1056 3838 1056 3469 
Q 1056 3159 1242 3001 
Q 1428 2844 1947 2747 
L 2328 2669 
Q 3034 2534 3370 2195 
Q 3706 1856 3706 1288 
Q 3706 609 3251 259 
Q 2797 -91 1919 -91 
Q 1588 -91 1214 -16 
Q 841 59 441 206 
L 441 856 
Q 825 641 1194 531 
Q 1563 422 1919 422 
Q 2459 422 2753 634 
Q 3047 847 3047 1241 
Q 3047 1584 2836 1778 
Q 2625 1972 2144 2069 
L 1759 2144 
Q 1053 2284 737 2584 
Q 422 2884 422 3419 
Q 422 4038 858 4394 
Q 1294 4750 2059 4750 
Q 2388 4750 2728 4690 
Q 3069 4631 3425 4513 
z
" transform="scale(0.015625)"/>
       <path id="DejaVuSans-70" d="M 1159 525 
L 1159 -1331 
L 581 -1331 
L 581 3500 
L 1159 3500 
L 1159 2969 
Q 1341 3281 1617 3432 
Q 1894 3584 2278 3584 
Q 2916 3584 3314 3078 
Q 3713 2572 3713 1747 
Q 3713 922 3314 415 
Q 2916 -91 2278 -91 
Q 1894 -91 1617 61 
Q 1341 213 1159 525 
z
M 3116 1747 
Q 3116 2381 2855 2742 
Q 2594 3103 2138 3103 
Q 1681 3103 1420 2742 
Q 1159 2381 1159 1747 
Q 1159 1113 1420 752 
Q 1681 391 2138 391 
Q 2594 391 2855 752 
Q 3116 1113 3116 1747 
z
" transform="scale(0.015625)"/>
       <path id="DejaVuSans-65" d="M 3597 1894 
L 3597 1613 
L 953 1613 
Q 991 1019 1311 708 
Q 1631 397 2203 397 
Q 2534 397 2845 478 
Q 3156 559 3463 722 
L 3463 178 
Q 3153 47 2828 -22 
Q 2503 -91 2169 -91 
Q 1331 -91 842 396 
Q 353 884 353 1716 
Q 353 2575 817 3079 
Q 1281 3584 2069 3584 
Q 2775 3584 3186 3129 
Q 3597 2675 3597 1894 
z
M 3022 2063 
Q 3016 2534 2758 2815 
Q 2500 3097 2075 3097 
Q 1594 3097 1305 2825 
Q 1016 2553 972 2059 
L 3022 2063 
z
" transform="scale(0.015625)"/>
       <path id="DejaVuSans-63" d="M 3122 3366 
L 3122 2828 
Q 2878 2963 2633 3030 
Q 2388 3097 2138 3097 
Q 1578 3097 1268 2742 
Q 959 2388 959 1747 
Q 959 1106 1268 751 
Q 1578 397 2138 397 
Q 2388 397 2633 464 
Q 2878 531 3122 666 
L 3122 134 
Q 2881 22 2623 -34 
Q 2366 -91 2075 -91 
Q 1284 -91 818 406 
Q 353 903 353 1747 
Q 353 2603 823 3093 
Q 1294 3584 2113 3584 
Q 2378 3584 2631 3529 
Q 2884 3475 3122 3366 
z
" transform="scale(0.015625)"/>
       <path id="DejaVuSans-69" d="M 603 3500 
L 1178 3500 
L 1178 0 
L 603 0 
L 603 3500 
z
M 603 4863 
L 1178 4863 
L 1178 4134 
L 603 4134 
L 603 4863 
z
" transform="scale(0.015625)"/>
       <path id="DejaVuSans-66" d="M 2375 4863 
L 2375 4384 
L 1825 4384 
Q 1516 4384 1395 4259 
Q 1275 4134 1275 3809 
L 1275 3500 
L 2222 3500 
L 2222 3053 
L 1275 3053 
L 1275 0 
L 697 0 
L 697 3053 
L 147 3053 
L 147 3500 
L 697 3500 
L 697 3744 
Q 697 4328 969 4595 
Q 1241 4863 1831 4863 
L 2375 4863 
z
" transform="scale(0.015625)"/>
       <path id="DejaVuSans-74" d="M 1172 4494 
L 1172 3500 
L 2356 3500 
L 2356 3053 
L 1172 3053 
L 1172 1153 
Q 1172 725 1289 603 
Q 1406 481 1766 481 
L 2356 481 
L 2356 0 
L 1766 0 
Q 1100 0 847 248 
Q 594 497 594 1153 
L 594 3053 
L 172 3053 
L 172 3500 
L 594 3500 
L 594 4494 
L 1172 4494 
z
" transform="scale(0.015625)"/>
       <path id="DejaVuSans-79" d="M 2059 -325 
Q 1816 -950 1584 -1140 
Q 1353 -1331 966 -1331 
L 506 -1331 
L 506 -850 
L 844 -850 
Q 1081 -850 1212 -737 
Q 1344 -625 1503 -206 
L 1606 56 
L 191 3500 
L 800 3500 
L 1894 763 
L 2988 3500 
L 3597 3500 
L 2059 -325 
z
" transform="scale(0.015625)"/>
      </defs>
      <use xlink:href="#DejaVuSans-31"/>
      <use xlink:href="#DejaVuSans-20" x="63.623047"/>
      <use xlink:href="#DejaVuSans-2d" x="95.410156"/>
      <use xlink:href="#DejaVuSans-20" x="131.494141"/>
      <use xlink:href="#DejaVuSans-53" x="163.28125"/>
      <use xlink:href="#DejaVuSans-70" x="226.757812"/>
      <use xlink:href="#DejaVuSans-65" x="290.234375"/>
      <use xlink:href="#DejaVuSans-63" x="351.757812"/>
      <use xlink:href="#DejaVuSans-69" x="406.738281"/>
      <use xlink:href="#DejaVuSans-66" x="434.521484"/>
      <use xlink:href="#DejaVuSans-69" x="469.726562"/>
      <use xlink:href="#DejaVuSans-63" x="497.509766"/>
      <use xlink:href="#DejaVuSans-69" x="552.490234"/>
      <use xlink:href="#DejaVuSans-74" x="580.273438"/>
      <use xlink:href="#DejaVuSans-79" x="619.482422"/>
     </g>
    </g>
   </g>
   <g id="matplotlib.axis_2">
    <g id="ytick_1">
     <g id="line2d_19">
      <path d="M 53.0325 307.229 
L 332.0325 307.229 
" clip-path="url(#pb032908f26)" style="fill: none; stroke: #dddddd; stroke-width: 0.8; stroke-linecap: square"/>
     </g>
     <g id="line2d_20"/>
     <g id="text_7">
      <!-- 0 -->
      <g transform="translate(41.8975 311.788063) scale(0.12 -0.12)">
       <use xlink:href="#DejaVuSans-30"/>
      </g>
     </g>
    </g>
    <g id="ytick_2">
     <g id="line2d_21">
      <path d="M 53.0325 244.229 
L 332.0325 244.229 
" clip-path="url(#pb032908f26)" style="fill: none; stroke: #dddddd; stroke-width: 0.8; stroke-linecap: square"/>
     </g>
     <g id="line2d_22"/>
     <g id="text_8">
      <!-- 0.25 -->
      <g transform="translate(22.81375 248.788063) scale(0.12 -0.12)">
       <use xlink:href="#DejaVuSans-30"/>
       <use xlink:href="#DejaVuSans-2e" x="63.623047"/>
       <use xlink:href="#DejaVuSans-32" x="95.410156"/>
       <use xlink:href="#DejaVuSans-35" x="159.033203"/>
      </g>
     </g>
    </g>
    <g id="ytick_3">
     <g id="line2d_23">
      <path d="M 53.0325 181.229 
L 332.0325 181.229 
" clip-path="url(#pb032908f26)" style="fill: none; stroke: #dddddd; stroke-width: 0.8; stroke-linecap: square"/>
     </g>
     <g id="line2d_24"/>
     <g id="text_9">
      <!-- 0.5 -->
      <g transform="translate(30.44875 185.788063) scale(0.12 -0.12)">
       <use xlink:href="#DejaVuSans-30"/>
       <use xlink:href="#DejaVuSans-2e" x="63.623047"/>
       <use xlink:href="#DejaVuSans-35" x="95.410156"/>
      </g>
     </g>
    </g>
    <g id="ytick_4">
     <g id="line2d_25">
      <path d="M 53.0325 118.229 
L 332.0325 118.229 
" clip-path="url(#pb032908f26)" style="fill: none; stroke: #dddddd; stroke-width: 0.8; stroke-linecap: square"/>
     </g>
     <g id="line2d_26"/>
     <g id="text_10">
      <!-- 0.75 -->
      <g transform="translate(22.81375 122.788063) scale(0.12 -0.12)">
       <use xlink:href="#DejaVuSans-30"/>
       <use xlink:href="#DejaVuSans-2e" x="63.623047"/>
       <use xlink:href="#DejaVuSans-37" x="95.410156"/>
       <use xlink:href="#DejaVuSans-35" x="159.033203"/>
      </g>
     </g>
    </g>
    <g id="ytick_5">
     <g id="line2d_27">
      <path d="M 53.0325 55.229 
L 332.0325 55.229 
" clip-path="url(#pb032908f26)" style="fill: none; stroke: #dddddd; stroke-width: 0.8; stroke-linecap: square"/>
     </g>
     <g id="line2d_28"/>
     <g id="text_11">
      <!-- 1 -->
      <g transform="translate(41.8975 59.788063) scale(0.12 -0.12)">
       <use xlink:href="#DejaVuSans-31"/>
      </g>
     </g>
    </g>
    <g id="ytick_6">
     <g id="line2d_29">
      <path d="M 53.0325 275.729 
L 332.0325 275.729 
" clip-path="url(#pb032908f26)" style="fill: none; stroke-dasharray: 0.7,1.155; stroke-dashoffset: 0; stroke: #eeeeee; stroke-width: 0.7"/>
     </g>
     <g id="line2d_30"/>
    </g>
    <g id="ytick_7">
     <g id="line2d_31">
      <path d="M 53.0325 212.729 
L 332.0325 212.729 
" clip-path="url(#pb032908f26)" style="fill: none; stroke-dasharray: 0.7,1.155; stroke-dashoffset: 0; stroke: #eeeeee; stroke-width: 0.7"/>
     </g>
     <g id="line2d_32"/>
    </g>
    <g id="ytick_8">
     <g id="line2d_33">
      <path d="M 53.0325 149.729 
L 332.0325 149.729 
" clip-path="url(#pb032908f26)" style="fill: none; stroke-dasharray: 0.7,1.155; stroke-dashoffset: 0; stroke: #eeeeee; stroke-width: 0.7"/>
     </g>
     <g id="line2d_34"/>
    </g>
    <g id="ytick_9">
     <g id="line2d_35">
      <path d="M 53.0325 86.729 
L 332.0325 86.729 
" clip-path="url(#pb032908f26)" style="fill: none; stroke-dasharray: 0.7,1.155; stroke-dashoffset: 0; stroke: #eeeeee; stroke-width: 0.7"/>
     </g>
     <g id="line2d_36"/>
    </g>
    <g id="text_12">
     <!-- Sensitivity -->
     <g transform="translate(16.318125 212.465563) rotate(-90) scale(0.12 -0.12)">
      <defs>
       <path id="DejaVuSans-6e" d="M 3513 2113 
L 3513 0 
L 2938 0 
L 2938 2094 
Q 2938 2591 2744 2837 
Q 2550 3084 2163 3084 
Q 1697 3084 1428 2787 
Q 1159 2491 1159 1978 
L 1159 0 
L 581 0 
L 581 3500 
L 1159 3500 
L 1159 2956 
Q 1366 3272 1645 3428 
Q 1925 3584 2291 3584 
Q 2894 3584 3203 3211 
Q 3513 2838 3513 2113 
z
" transform="scale(0.015625)"/>
       <path id="DejaVuSans-73" d="M 2834 3397 
L 2834 2853 
Q 2591 2978 2328 3040 
Q 2066 3103 1784 3103 
Q 1356 3103 1142 2972 
Q 928 2841 928 2578 
Q 928 2378 1081 2264 
Q 1234 2150 1697 2047 
L 1894 2003 
Q 2506 1872 2764 1633 
Q 3022 1394 3022 966 
Q 3022 478 2636 193 
Q 2250 -91 1575 -91 
Q 1294 -91 989 -36 
Q 684 19 347 128 
L 347 722 
Q 666 556 975 473 
Q 1284 391 1588 391 
Q 1994 391 2212 530 
Q 2431 669 2431 922 
Q 2431 1156 2273 1281 
Q 2116 1406 1581 1522 
L 1381 1569 
Q 847 1681 609 1914 
Q 372 2147 372 2553 
Q 372 3047 722 3315 
Q 1072 3584 1716 3584 
Q 2034 3584 2315 3537 
Q 2597 3491 2834 3397 
z
" transform="scale(0.015625)"/>
       <path id="DejaVuSans-76" d="M 191 3500 
L 800 3500 
L 1894 563 
L 2988 3500 
L 3597 3500 
L 2284 0 
L 1503 0 
L 191 3500 
z
" transform="scale(0.015625)"/>
      </defs>
      <use xlink:href="#DejaVuSans-53"/>
      <use xlink:href="#DejaVuSans-65" x="63.476562"/>
      <use xlink:href="#DejaVuSans-6e" x="125"/>
      <use xlink:href="#DejaVuSans-73" x="188.378906"/>
      <use xlink:href="#DejaVuSans-69" x="240.478516"/>
      <use xlink:href="#DejaVuSans-74" x="268.261719"/>
      <use xlink:href="#DejaVuSans-69" x="307.470703"/>
      <use xlink:href="#DejaVuSans-76" x="335.253906"/>
      <use xlink:href="#DejaVuSans-69" x="394.433594"/>
      <use xlink:href="#DejaVuSans-74" x="422.216797"/>
      <use xlink:href="#DejaVuSans-79" x="461.425781"/>
     </g>
    </g>
   </g>
   <g id="line2d_37">
    <path d="M 65.714318 307.229 
L 65.714318 305.18022 
L 65.714318 301.082659 
L 68.250682 301.082659 
L 68.250682 299.033878 
L 68.250682 294.936317 
L 73.323409 294.936317 
L 73.323409 286.741195 
L 73.323409 282.643634 
L 73.323409 280.594854 
L 75.859773 280.594854 
L 80.9325 280.594854 
L 80.9325 276.497293 
L 83.468864 276.497293 
L 83.468864 274.448512 
L 86.005227 274.448512 
L 86.005227 270.350951 
L 88.541591 270.350951 
L 88.541591 266.25339 
L 93.614318 266.25339 
L 96.150682 266.25339 
L 96.150682 262.155829 
L 103.759773 262.155829 
L 103.759773 256.009488 
L 103.759773 251.911927 
L 103.759773 249.863146 
L 108.8325 249.863146 
L 108.8325 245.765585 
L 111.368864 245.765585 
L 111.368864 241.668024 
L 111.368864 233.472902 
L 118.977955 233.472902 
L 121.514318 233.472902 
L 121.514318 225.27778 
L 121.514318 221.18022 
L 121.514318 219.131439 
L 124.050682 219.131439 
L 131.659773 219.131439 
L 131.659773 212.985098 
L 131.659773 208.887537 
L 131.659773 200.692415 
L 134.196136 200.692415 
L 134.196136 198.643634 
L 136.7325 198.643634 
L 136.7325 196.594854 
L 136.7325 188.399732 
L 136.7325 172.009488 
L 141.805227 172.009488 
L 144.341591 172.009488 
L 151.950682 172.009488 
L 157.023409 172.009488 
L 157.023409 167.911927 
L 172.241591 167.911927 
L 174.777955 167.911927 
L 174.777955 161.765585 
L 179.850682 161.765585 
L 182.387045 161.765585 
L 187.459773 161.765585 
L 189.996136 161.765585 
L 189.996136 157.668024 
L 202.677955 147.424122 
L 207.750682 147.424122 
L 207.750682 137.18022 
L 220.4325 137.18022 
L 220.4325 135.131439 
L 225.505227 135.131439 
L 225.505227 131.033878 
L 228.041591 131.033878 
L 238.187045 131.033878 
L 238.187045 128.985098 
L 245.796136 128.985098 
L 245.796136 126.936317 
L 245.796136 122.838756 
L 248.3325 122.838756 
L 253.405227 122.838756 
L 253.405227 118.741195 
L 266.087045 118.741195 
L 266.087045 112.594854 
L 266.087045 110.546073 
L 266.087045 106.448512 
L 268.623409 106.448512 
L 268.623409 102.350951 
L 278.768864 102.350951 
L 278.768864 100.302171 
L 281.305227 100.302171 
L 286.377955 100.302171 
L 286.377955 94.155829 
L 286.377955 90.058268 
L 286.377955 77.765585 
L 288.914318 77.765585 
L 299.059773 77.765585 
L 306.668864 77.765585 
L 306.668864 71.619244 
L 311.741591 71.619244 
L 316.814318 71.619244 
L 316.814318 67.521683 
L 319.350682 67.521683 
L 319.350682 63.424122 
L 319.350682 61.375341 
L 319.350682 57.27778 
L 319.350682 55.229 
" clip-path="url(#pb032908f26)" style="fill: none; stroke-dasharray: 2,3.3; stroke-dashoffset: 0; stroke: #e3819d; stroke-opacity: 0.5; stroke-width: 2"/>
   </g>
   <g id="line2d_38">
    <path d="M 65.714318 307.229 
L 65.714318 305.129 
L 65.714318 296.729 
L 65.714318 292.529 
L 68.176807 292.529 
L 68.176807 288.329 
L 70.639296 288.329 
L 70.639296 282.029 
L 70.639296 277.829 
L 70.639296 271.529 
L 80.489252 271.529 
L 80.489252 267.329 
L 80.489252 263.129 
L 82.951741 263.129 
L 82.951741 256.829 
L 90.339208 256.829 
L 90.339208 248.429 
L 95.264186 248.429 
L 95.264186 242.129 
L 95.264186 235.829 
L 97.726675 235.829 
L 97.726675 233.729 
L 97.726675 229.529 
L 97.726675 227.429 
L 97.726675 219.029 
L 97.726675 214.829 
L 97.726675 212.729 
L 102.651653 212.729 
L 102.651653 208.529 
L 107.576631 208.529 
L 107.576631 204.329 
L 107.576631 198.029 
L 107.576631 189.629 
L 107.576631 187.529 
L 112.501609 187.529 
L 112.501609 185.429 
L 114.964098 185.429 
L 114.964098 172.829 
L 114.964098 170.729 
L 119.889075 170.729 
L 119.889075 164.429 
L 119.889075 162.329 
L 119.889075 156.029 
L 119.889075 153.929 
L 122.351564 153.929 
L 122.351564 149.729 
L 124.814053 130.829 
L 129.739031 130.829 
L 134.664009 130.829 
L 137.126498 130.829 
L 142.051476 130.829 
L 146.976454 130.829 
L 154.363921 130.829 
L 156.82641 130.829 
L 156.82641 128.729 
L 159.288899 128.729 
L 174.063833 120.329 
L 174.063833 116.129 
L 178.988811 116.129 
L 181.4513 116.129 
L 181.4513 109.829 
L 186.376278 109.829 
L 186.376278 103.529 
L 188.838767 103.529 
L 193.763744 103.529 
L 193.763744 99.329 
L 198.688722 99.329 
L 198.688722 95.129 
L 201.151211 95.129 
L 208.538678 95.129 
L 218.388634 95.129 
L 218.388634 93.029 
L 220.851123 93.029 
L 228.23859 93.029 
L 228.23859 90.929 
L 230.701079 90.929 
L 238.088546 90.929 
L 238.088546 86.729 
L 240.551035 86.729 
L 247.938502 86.729 
L 250.400991 86.729 
L 250.400991 84.629 
L 257.788458 84.629 
L 257.788458 80.429 
L 257.788458 76.229 
L 265.175925 76.229 
L 270.100902 76.229 
L 289.800814 76.229 
L 297.188281 76.229 
L 297.188281 72.029 
L 304.575748 72.029 
L 304.575748 65.729 
L 304.575748 63.629 
L 307.038237 63.629 
L 311.963215 63.629 
L 314.425704 63.629 
L 314.425704 61.529 
L 319.350682 61.529 
L 319.350682 59.429 
L 319.350682 55.229 
" clip-path="url(#pb032908f26)" style="fill: none; stroke-dasharray: 2,3.3; stroke-dashoffset: 0; stroke: #e3819d; stroke-opacity: 0.5; stroke-width: 2"/>
   </g>
   <g id="line2d_39">
    <path d="M 65.714318 307.229 
L 65.714318 304.979 
L 65.714318 293.729 
L 67.99933 293.729 
L 67.99933 291.479 
L 70.284343 291.479 
L 70.284343 284.729 
L 72.569355 284.729 
L 72.569355 273.479 
L 77.13938 273.479 
L 77.13938 266.729 
L 79.424392 266.729 
L 79.424392 264.479 
L 83.994416 264.479 
L 83.994416 262.229 
L 86.279429 262.229 
L 86.279429 259.979 
L 90.849453 259.979 
L 90.849453 250.979 
L 93.134466 250.979 
L 93.134466 239.729 
L 95.419478 239.729 
L 95.419478 235.229 
L 97.70449 235.229 
L 97.70449 223.979 
L 99.989502 223.979 
L 99.989502 221.729 
L 102.274515 221.729 
L 102.274515 219.479 
L 106.844539 219.479 
L 106.844539 205.979 
L 111.414564 205.979 
L 111.414564 203.729 
L 113.699576 203.729 
L 113.699576 201.479 
L 118.269601 201.479 
L 118.269601 199.229 
L 120.554613 199.229 
L 120.554613 187.979 
L 122.839625 187.979 
L 122.839625 185.729 
L 125.124638 185.729 
L 125.124638 183.479 
L 129.694662 183.479 
L 129.694662 181.229 
L 131.979674 181.229 
L 131.979674 172.229 
L 134.264687 172.229 
L 134.264687 169.979 
L 138.834711 156.479 
L 147.97476 156.479 
L 147.97476 154.229 
L 154.829797 154.229 
L 154.829797 151.979 
L 157.11481 151.979 
L 157.11481 149.729 
L 166.254859 149.729 
L 166.254859 147.479 
L 168.539871 147.479 
L 168.539871 145.229 
L 177.67992 133.979 
L 177.67992 131.729 
L 182.249945 131.729 
L 182.249945 129.479 
L 186.819969 129.479 
L 186.819969 127.229 
L 189.104982 127.229 
L 189.104982 124.979 
L 202.815055 124.979 
L 202.815055 122.729 
L 207.38508 122.729 
L 207.38508 120.479 
L 211.955104 120.479 
L 218.810141 120.479 
L 218.810141 118.229 
L 227.95019 118.229 
L 227.95019 115.979 
L 230.235203 115.979 
L 230.235203 111.479 
L 234.805227 111.479 
L 234.805227 109.229 
L 237.09024 109.229 
L 237.09024 106.979 
L 250.800313 106.979 
L 250.800313 104.729 
L 259.940362 104.729 
L 259.940362 95.729 
L 262.225375 95.729 
L 262.225375 93.479 
L 271.365424 93.479 
L 271.365424 91.229 
L 285.075498 91.229 
L 285.075498 82.229 
L 294.215547 82.229 
L 294.215547 79.979 
L 303.355596 79.979 
L 303.355596 73.229 
L 307.92562 73.229 
L 307.92562 70.979 
L 310.210633 70.979 
L 310.210633 68.729 
L 317.06567 68.729 
L 317.06567 66.479 
L 319.350682 66.479 
L 319.350682 59.729 
L 319.350682 55.229 
" clip-path="url(#pb032908f26)" style="fill: none; stroke: #c41e3a; stroke-width: 2; stroke-linecap: square"/>
   </g>
   <g id="line2d_40">
    <path d="M 65.714318 307.229 
L 319.350682 55.229 
" clip-path="url(#pb032908f26)" style="fill: none; stroke-dasharray: 5.55,2.4; stroke-dashoffset: 0; stroke: #4d4f53; stroke-opacity: 0.8; stroke-width: 1.5"/>
   </g>
   <g id="patch_3">
    <path d="M 53.0325 319.829 
L 53.0325 42.629 
" style="fill: none; stroke: #000000; stroke-width: 0.8; stroke-linejoin: miter; stroke-linecap: square"/>
   </g>
   <g id="patch_4">
    <path d="M 53.0325 319.829 
L 332.0325 319.829 
" style="fill: none; stroke: #000000; stroke-width: 0.8; stroke-linejoin: miter; stroke-linecap: square"/>
   </g>
   <g id="legend_1">
    <g id="patch_5">
     <path d="M 110.97875 33.085 
L 274.08625 33.085 
Q 275.68625 33.085 275.68625 31.485 
L 275.68625 8.8 
Q 275.68625 7.2 274.08625 7.2 
L 110.97875 7.2 
Q 109.37875 7.2 109.37875 8.8 
L 109.37875 31.485 
Q 109.37875 33.085 110.97875 33.085 
z
" style="fill: #ffffff; opacity: 0.8; stroke: #cccccc; stroke-linejoin: miter"/>
    </g>
    <g id="line2d_41">
     <path d="M 112.57875 13.67875 
L 120.57875 13.67875 
L 128.57875 13.67875 
" style="fill: none; stroke: #c41e3a; stroke-width: 2; stroke-linecap: square"/>
    </g>
    <g id="text_13">
     <!-- ROC (AUC = 0.641 [0.569, 0.714]) -->
     <g transform="translate(134.97875 16.47875) scale(0.08 -0.08)">
      <defs>
       <path id="DejaVuSans-52" d="M 2841 2188 
Q 3044 2119 3236 1894 
Q 3428 1669 3622 1275 
L 4263 0 
L 3584 0 
L 2988 1197 
Q 2756 1666 2539 1819 
Q 2322 1972 1947 1972 
L 1259 1972 
L 1259 0 
L 628 0 
L 628 4666 
L 2053 4666 
Q 2853 4666 3247 4331 
Q 3641 3997 3641 3322 
Q 3641 2881 3436 2590 
Q 3231 2300 2841 2188 
z
M 1259 4147 
L 1259 2491 
L 2053 2491 
Q 2509 2491 2742 2702 
Q 2975 2913 2975 3322 
Q 2975 3731 2742 3939 
Q 2509 4147 2053 4147 
L 1259 4147 
z
" transform="scale(0.015625)"/>
       <path id="DejaVuSans-4f" d="M 2522 4238 
Q 1834 4238 1429 3725 
Q 1025 3213 1025 2328 
Q 1025 1447 1429 934 
Q 1834 422 2522 422 
Q 3209 422 3611 934 
Q 4013 1447 4013 2328 
Q 4013 3213 3611 3725 
Q 3209 4238 2522 4238 
z
M 2522 4750 
Q 3503 4750 4090 4092 
Q 4678 3434 4678 2328 
Q 4678 1225 4090 567 
Q 3503 -91 2522 -91 
Q 1538 -91 948 565 
Q 359 1222 359 2328 
Q 359 3434 948 4092 
Q 1538 4750 2522 4750 
z
" transform="scale(0.015625)"/>
       <path id="DejaVuSans-43" d="M 4122 4306 
L 4122 3641 
Q 3803 3938 3442 4084 
Q 3081 4231 2675 4231 
Q 1875 4231 1450 3742 
Q 1025 3253 1025 2328 
Q 1025 1406 1450 917 
Q 1875 428 2675 428 
Q 3081 428 3442 575 
Q 3803 722 4122 1019 
L 4122 359 
Q 3791 134 3420 21 
Q 3050 -91 2638 -91 
Q 1578 -91 968 557 
Q 359 1206 359 2328 
Q 359 3453 968 4101 
Q 1578 4750 2638 4750 
Q 3056 4750 3426 4639 
Q 3797 4528 4122 4306 
z
" transform="scale(0.015625)"/>
       <path id="DejaVuSans-28" d="M 1984 4856 
Q 1566 4138 1362 3434 
Q 1159 2731 1159 2009 
Q 1159 1288 1364 580 
Q 1569 -128 1984 -844 
L 1484 -844 
Q 1016 -109 783 600 
Q 550 1309 550 2009 
Q 550 2706 781 3412 
Q 1013 4119 1484 4856 
L 1984 4856 
z
" transform="scale(0.015625)"/>
       <path id="DejaVuSans-41" d="M 2188 4044 
L 1331 1722 
L 3047 1722 
L 2188 4044 
z
M 1831 4666 
L 2547 4666 
L 4325 0 
L 3669 0 
L 3244 1197 
L 1141 1197 
L 716 0 
L 50 0 
L 1831 4666 
z
" transform="scale(0.015625)"/>
       <path id="DejaVuSans-55" d="M 556 4666 
L 1191 4666 
L 1191 1831 
Q 1191 1081 1462 751 
Q 1734 422 2344 422 
Q 2950 422 3222 751 
Q 3494 1081 3494 1831 
L 3494 4666 
L 4128 4666 
L 4128 1753 
Q 4128 841 3676 375 
Q 3225 -91 2344 -91 
Q 1459 -91 1007 375 
Q 556 841 556 1753 
L 556 4666 
z
" transform="scale(0.015625)"/>
       <path id="DejaVuSans-3d" d="M 678 2906 
L 4684 2906 
L 4684 2381 
L 678 2381 
L 678 2906 
z
M 678 1631 
L 4684 1631 
L 4684 1100 
L 678 1100 
L 678 1631 
z
" transform="scale(0.015625)"/>
       <path id="DejaVuSans-36" d="M 2113 2584 
Q 1688 2584 1439 2293 
Q 1191 2003 1191 1497 
Q 1191 994 1439 701 
Q 1688 409 2113 409 
Q 2538 409 2786 701 
Q 3034 994 3034 1497 
Q 3034 2003 2786 2293 
Q 2538 2584 2113 2584 
z
M 3366 4563 
L 3366 3988 
Q 3128 4100 2886 4159 
Q 2644 4219 2406 4219 
Q 1781 4219 1451 3797 
Q 1122 3375 1075 2522 
Q 1259 2794 1537 2939 
Q 1816 3084 2150 3084 
Q 2853 3084 3261 2657 
Q 3669 2231 3669 1497 
Q 3669 778 3244 343 
Q 2819 -91 2113 -91 
Q 1303 -91 875 529 
Q 447 1150 447 2328 
Q 447 3434 972 4092 
Q 1497 4750 2381 4750 
Q 2619 4750 2861 4703 
Q 3103 4656 3366 4563 
z
" transform="scale(0.015625)"/>
       <path id="DejaVuSans-34" d="M 2419 4116 
L 825 1625 
L 2419 1625 
L 2419 4116 
z
M 2253 4666 
L 3047 4666 
L 3047 1625 
L 3713 1625 
L 3713 1100 
L 3047 1100 
L 3047 0 
L 2419 0 
L 2419 1100 
L 313 1100 
L 313 1709 
L 2253 4666 
z
" transform="scale(0.015625)"/>
       <path id="DejaVuSans-5b" d="M 550 4863 
L 1875 4863 
L 1875 4416 
L 1125 4416 
L 1125 -397 
L 1875 -397 
L 1875 -844 
L 550 -844 
L 550 4863 
z
" transform="scale(0.015625)"/>
       <path id="DejaVuSans-39" d="M 703 97 
L 703 672 
Q 941 559 1184 500 
Q 1428 441 1663 441 
Q 2288 441 2617 861 
Q 2947 1281 2994 2138 
Q 2813 1869 2534 1725 
Q 2256 1581 1919 1581 
Q 1219 1581 811 2004 
Q 403 2428 403 3163 
Q 403 3881 828 4315 
Q 1253 4750 1959 4750 
Q 2769 4750 3195 4129 
Q 3622 3509 3622 2328 
Q 3622 1225 3098 567 
Q 2575 -91 1691 -91 
Q 1453 -91 1209 -44 
Q 966 3 703 97 
z
M 1959 2075 
Q 2384 2075 2632 2365 
Q 2881 2656 2881 3163 
Q 2881 3666 2632 3958 
Q 2384 4250 1959 4250 
Q 1534 4250 1286 3958 
Q 1038 3666 1038 3163 
Q 1038 2656 1286 2365 
Q 1534 2075 1959 2075 
z
" transform="scale(0.015625)"/>
       <path id="DejaVuSans-2c" d="M 750 794 
L 1409 794 
L 1409 256 
L 897 -744 
L 494 -744 
L 750 256 
L 750 794 
z
" transform="scale(0.015625)"/>
       <path id="DejaVuSans-5d" d="M 1947 4863 
L 1947 -844 
L 622 -844 
L 622 -397 
L 1369 -397 
L 1369 4416 
L 622 4416 
L 622 4863 
L 1947 4863 
z
" transform="scale(0.015625)"/>
       <path id="DejaVuSans-29" d="M 513 4856 
L 1013 4856 
Q 1481 4119 1714 3412 
Q 1947 2706 1947 2009 
Q 1947 1309 1714 600 
Q 1481 -109 1013 -844 
L 513 -844 
Q 928 -128 1133 580 
Q 1338 1288 1338 2009 
Q 1338 2731 1133 3434 
Q 928 4138 513 4856 
z
" transform="scale(0.015625)"/>
      </defs>
      <use xlink:href="#DejaVuSans-52"/>
      <use xlink:href="#DejaVuSans-4f" x="69.482422"/>
      <use xlink:href="#DejaVuSans-43" x="148.193359"/>
      <use xlink:href="#DejaVuSans-20" x="218.017578"/>
      <use xlink:href="#DejaVuSans-28" x="249.804688"/>
      <use xlink:href="#DejaVuSans-41" x="288.818359"/>
      <use xlink:href="#DejaVuSans-55" x="357.226562"/>
      <use xlink:href="#DejaVuSans-43" x="430.419922"/>
      <use xlink:href="#DejaVuSans-20" x="500.244141"/>
      <use xlink:href="#DejaVuSans-3d" x="532.03125"/>
      <use xlink:href="#DejaVuSans-20" x="615.820312"/>
      <use xlink:href="#DejaVuSans-30" x="647.607422"/>
      <use xlink:href="#DejaVuSans-2e" x="711.230469"/>
      <use xlink:href="#DejaVuSans-36" x="743.017578"/>
      <use xlink:href="#DejaVuSans-34" x="806.640625"/>
      <use xlink:href="#DejaVuSans-31" x="870.263672"/>
      <use xlink:href="#DejaVuSans-20" x="933.886719"/>
      <use xlink:href="#DejaVuSans-5b" x="965.673828"/>
      <use xlink:href="#DejaVuSans-30" x="1004.6875"/>
      <use xlink:href="#DejaVuSans-2e" x="1068.310547"/>
      <use xlink:href="#DejaVuSans-35" x="1100.097656"/>
      <use xlink:href="#DejaVuSans-36" x="1163.720703"/>
      <use xlink:href="#DejaVuSans-39" x="1227.34375"/>
      <use xlink:href="#DejaVuSans-2c" x="1290.966797"/>
      <use xlink:href="#DejaVuSans-20" x="1322.753906"/>
      <use xlink:href="#DejaVuSans-30" x="1354.541016"/>
      <use xlink:href="#DejaVuSans-2e" x="1418.164062"/>
      <use xlink:href="#DejaVuSans-37" x="1449.951172"/>
      <use xlink:href="#DejaVuSans-31" x="1513.574219"/>
      <use xlink:href="#DejaVuSans-34" x="1577.197266"/>
      <use xlink:href="#DejaVuSans-5d" x="1640.820312"/>
      <use xlink:href="#DejaVuSans-29" x="1679.833984"/>
     </g>
    </g>
    <g id="line2d_42">
     <path d="M 112.57875 25.42125 
L 120.57875 25.42125 
L 128.57875 25.42125 
" style="fill: none; stroke-dasharray: 5.55,2.4; stroke-dashoffset: 0; stroke: #4d4f53; stroke-opacity: 0.8; stroke-width: 1.5"/>
    </g>
    <g id="text_14">
     <!-- Chance -->
     <g transform="translate(134.97875 28.22125) scale(0.08 -0.08)">
      <defs>
       <path id="DejaVuSans-68" d="M 3513 2113 
L 3513 0 
L 2938 0 
L 2938 2094 
Q 2938 2591 2744 2837 
Q 2550 3084 2163 3084 
Q 1697 3084 1428 2787 
Q 1159 2491 1159 1978 
L 1159 0 
L 581 0 
L 581 4863 
L 1159 4863 
L 1159 2956 
Q 1366 3272 1645 3428 
Q 1925 3584 2291 3584 
Q 2894 3584 3203 3211 
Q 3513 2838 3513 2113 
z
" transform="scale(0.015625)"/>
       <path id="DejaVuSans-61" d="M 2194 1759 
Q 1497 1759 1228 1600 
Q 959 1441 959 1056 
Q 959 750 1161 570 
Q 1363 391 1709 391 
Q 2188 391 2477 730 
Q 2766 1069 2766 1631 
L 2766 1759 
L 2194 1759 
z
M 3341 1997 
L 3341 0 
L 2766 0 
L 2766 531 
Q 2569 213 2275 61 
Q 1981 -91 1556 -91 
Q 1019 -91 701 211 
Q 384 513 384 1019 
Q 384 1609 779 1909 
Q 1175 2209 1959 2209 
L 2766 2209 
L 2766 2266 
Q 2766 2663 2505 2880 
Q 2244 3097 1772 3097 
Q 1472 3097 1187 3025 
Q 903 2953 641 2809 
L 641 3341 
Q 956 3463 1253 3523 
Q 1550 3584 1831 3584 
Q 2591 3584 2966 3190 
Q 3341 2797 3341 1997 
z
" transform="scale(0.015625)"/>
      </defs>
      <use xlink:href="#DejaVuSans-43"/>
      <use xlink:href="#DejaVuSans-68" x="69.824219"/>
      <use xlink:href="#DejaVuSans-61" x="133.203125"/>
      <use xlink:href="#DejaVuSans-6e" x="194.482422"/>
      <use xlink:href="#DejaVuSans-63" x="257.861328"/>
      <use xlink:href="#DejaVuSans-65" x="312.841797"/>
     </g>
    </g>
   </g>
  </g>
 </g>
 <defs>
  <clipPath id="pb032908f26">
   <rect x="53.0325" y="42.629" width="279" height="277.2"/>
  </clipPath>
 </defs>
</svg>
